<svg version="1.1" id="Layer_1" xmlns="http://www.w3.org/2000/svg" xmlns:xlink="http://www.w3.org/1999/xlink" x="0px" y="0px"
	 width="100%" viewBox="0 0 670 670" enable-background="new 0 0 670 670" xml:space="preserve">
<path fill="#FEFFFF" opacity="1.000000" stroke="none" 
	d="
M1.000000,260.000000 
	C1.000000,173.333328 1.000000,87.166664 1.000000,1.000000 
	C224.333328,1.000000 447.666656,1.000000 671.000000,1.000000 
	C671.000000,224.333328 671.000000,447.666656 671.000000,671.000000 
	C447.666656,671.000000 224.333328,671.000000 1.000000,671.000000 
	C1.000000,534.166687 1.000000,397.333344 1.000000,260.000000 
M390.374603,64.078781 
	C345.578491,41.957966 298.570465,37.228661 249.912567,46.647083 
	C221.240295,52.197014 194.003418,62.102917 169.227783,77.590858 
	C103.409485,118.735710 70.121216,177.530212 75.088890,255.999374 
	C76.565994,279.331665 84.734421,300.904236 98.216576,320.046967 
	C125.349358,358.571625 147.792969,399.709686 167.639175,442.342072 
	C171.909714,451.515778 180.545746,455.295715 188.871582,451.435730 
	C196.670654,447.819977 199.747345,438.248657 195.579926,429.614227 
	C188.853516,415.677826 182.562943,401.475739 174.930054,388.044067 
	C160.388351,362.454956 145.489700,337.040710 129.821472,312.131165 
	C121.634880,299.115997 113.093552,286.512756 108.985008,271.486023 
	C103.517578,251.489136 103.659294,231.463593 107.783081,211.226151 
	C115.309799,174.288864 133.234528,143.675369 162.435028,119.764175 
	C182.926315,102.984627 206.195358,91.306564 231.276367,83.256409 
	C276.011383,68.898003 320.630432,68.427788 364.618469,86.174431 
	C390.545990,96.634674 412.059448,112.817528 426.857605,137.135422 
	C436.588898,153.126953 440.168518,170.725052 440.954559,189.048416 
	C441.766479,207.976471 446.329956,225.617172 458.346375,240.626663 
	C467.381439,251.912155 476.923828,262.791351 486.233276,273.857422 
	C487.671783,275.567413 489.072388,277.309357 490.635132,279.212708 
	C487.677826,281.841248 485.284485,284.156311 482.700256,286.233978 
	C469.352814,296.965057 460.430939,310.622589 457.134369,327.377167 
	C454.734253,339.575592 453.207764,351.996399 452.118683,364.390717 
	C450.390625,384.056824 440.946869,397.712189 422.053284,403.678955 
	C407.999939,408.117157 393.624207,411.600494 379.270782,414.996552 
	C371.246338,416.895172 365.864624,422.139099 365.298218,430.277527 
	C364.854187,436.657867 369.836548,443.982208 376.914551,445.165192 
	C381.619995,445.951660 386.769684,444.858032 391.602478,443.966156 
	C409.965942,440.577332 427.986633,435.989777 444.644104,427.176941 
	C463.527130,417.186646 476.119812,402.189240 480.064178,380.926483 
	C482.241791,369.187653 483.496063,357.268005 484.906616,345.398956 
	C486.570404,331.398895 490.793274,318.795258 502.534088,309.804321 
	C506.487305,306.777039 510.124908,303.333069 514.116455,300.361206 
	C527.739075,290.218628 528.833557,273.737396 517.063110,261.422729 
	C507.297180,251.205292 497.717773,240.767319 488.691650,229.898911 
	C481.917633,221.742188 475.173615,213.200455 473.389679,202.255051 
	C472.215576,195.050980 471.649933,187.735794 471.065094,180.450012 
	C469.655151,162.886307 466.044769,145.934082 458.000031,130.087631 
	C443.058105,100.655357 419.967133,79.569153 390.374603,64.078781 
M391.264404,253.800156 
	C415.551392,232.096542 421.040314,204.782211 414.100372,174.310577 
	C407.380249,144.803986 388.624115,124.429504 362.526825,110.436783 
	C337.886200,97.225105 311.363922,92.846924 283.558899,93.698753 
	C270.072418,94.111923 258.810059,98.986229 249.167831,107.492981 
	C220.008469,133.218506 211.953079,176.051346 230.007538,210.403809 
	C236.548889,222.850128 235.233032,223.528748 250.924988,220.912827 
	C262.208313,219.031845 273.245575,215.723495 284.464233,213.397263 
	C318.710968,206.296143 347.636871,223.939026 355.376343,256.614441 
	C356.391052,260.898590 356.677551,265.355225 357.298065,269.708923 
	C366.791748,268.751282 379.527466,262.772583 391.264404,253.800156 
M247.108093,234.880936 
	C236.011261,235.709900 225.001984,234.718765 214.732574,230.567520 
	C206.064056,227.063385 197.334549,226.366287 188.316406,226.998016 
	C168.999023,228.351227 151.616257,243.634415 148.456299,262.333160 
	C147.282181,269.280853 147.190521,276.972504 152.091827,282.269623 
	C157.523514,288.139954 164.091003,293.464355 171.121201,297.247589 
	C186.703857,305.633301 203.947113,308.703094 221.459961,310.176392 
	C243.413010,312.023224 265.299286,311.895905 287.073395,308.048126 
	C307.045349,304.518799 325.121552,297.226624 339.086212,281.850281 
	C340.682678,280.092438 342.457153,277.869965 342.769928,275.667084 
	C346.942017,246.283783 324.440338,221.050400 293.333160,225.557129 
	C278.103424,227.763550 263.117737,231.654739 247.108093,234.880936 
M130.642120,573.116638 
	C134.830994,568.287598 136.833878,562.587769 137.421204,556.297119 
	C139.187851,537.375244 131.064545,524.661621 114.747063,521.250549 
	C110.866058,520.439270 106.828392,520.092407 102.857185,520.049438 
	C89.363167,519.903442 75.866638,519.981812 62.371094,519.997131 
	C60.952423,519.998718 59.533928,520.149963 58.291908,520.221558 
	C58.291908,562.953796 58.291908,605.198364 58.291908,647.745178 
	C74.726746,647.745178 90.910774,648.622253 106.966408,647.559570 
	C138.744202,645.456238 144.980698,620.872437 139.968262,598.835571 
	C138.552048,592.609314 134.770966,587.664185 129.265717,584.371887 
	C126.450836,582.688477 123.246849,581.655701 120.540688,580.469971 
	C123.716835,578.211182 126.930573,575.925659 130.642120,573.116638 
M419.166290,558.500000 
	C419.166290,588.104187 419.166290,617.708374 419.166290,647.517456 
	C428.074219,647.517456 436.459167,647.517456 445.223816,647.517456 
	C445.223816,629.570435 445.223816,611.964172 445.223816,593.931763 
	C450.541840,593.931763 455.494568,593.771790 460.432953,593.969849 
	C467.560669,594.255737 471.708710,597.444458 472.943237,604.486877 
	C473.911987,610.012939 473.747833,615.733704 474.155548,621.363037 
	C474.694946,628.811096 475.130035,636.274963 476.021454,643.682495 
	C476.202332,645.185486 478.167633,647.619690 479.387756,647.667969 
	C488.112823,648.013550 496.857941,647.852600 507.057983,647.852600 
	C500.898895,642.911011 500.977692,637.044128 500.675446,631.266785 
	C500.240784,622.957886 499.727783,614.653198 499.251190,606.346497 
	C498.584137,594.721008 493.509918,586.731750 480.959412,584.782593 
	C494.704163,578.128784 499.022827,573.028687 500.576538,559.890991 
	C503.359619,536.358521 493.773224,519.625549 466.313202,519.967896 
	C454.318848,520.117493 442.321045,519.992981 430.324829,519.992981 
	C426.723083,519.992981 423.121307,519.992981 419.166290,519.992981 
	C419.166290,532.903992 419.166290,545.202026 419.166290,558.500000 
M185.497650,127.986008 
	C141.347061,158.979340 124.080269,204.541840 136.293884,251.356232 
	C153.840744,218.321854 181.069611,207.107986 217.807495,216.788986 
	C200.023026,176.742050 205.016510,139.700928 232.369720,104.402512 
	C228.408264,105.714294 225.639053,106.228745 223.262512,107.485649 
	C210.810837,114.071114 198.458633,120.844696 185.497650,127.986008 
M356.608246,560.912720 
	C356.022491,557.735535 355.436737,554.558411 354.876617,551.520325 
	C347.203674,551.520325 339.626129,551.520325 332.186218,551.520325 
	C332.186218,583.777954 332.186218,615.656860 332.186218,647.571411 
	C340.481750,647.571411 348.398529,647.571411 356.851685,647.571411 
	C356.851685,645.524292 356.851227,643.740845 356.851746,641.957397 
	C356.857605,621.808777 356.759674,601.659424 356.918396,581.511963 
	C356.986542,572.866211 361.852234,567.964478 369.600098,568.009583 
	C376.927460,568.052246 379.979065,571.910400 379.987610,581.278076 
	C380.006134,601.593994 379.991516,621.909973 379.990448,642.225891 
	C379.990356,643.981445 379.990448,645.736938 379.990448,647.500488 
	C388.720947,647.500488 396.779297,647.500488 404.923889,647.500488 
	C404.923889,622.499695 404.951752,597.862366 404.881012,573.225342 
	C404.873932,570.751221 404.435059,568.243164 403.911621,565.812195 
	C402.240692,558.051819 397.801025,552.533813 390.083160,550.234558 
	C380.163879,547.279724 365.004303,548.176514 356.608246,560.912720 
M244.052505,588.845642 
	C238.134125,590.478394 232.223709,592.140686 226.295914,593.738525 
	C205.714722,599.286255 202.905411,617.567993 207.832932,634.522278 
	C210.801804,644.737427 217.991531,649.721008 228.616547,649.834229 
	C238.570816,649.940308 247.975311,648.608582 253.684540,638.111267 
	C254.571442,641.029968 254.919189,643.235962 255.920883,645.088379 
	C256.562866,646.275513 258.143066,647.676331 259.347748,647.719299 
	C266.308472,647.967834 273.282654,647.840576 280.171600,647.840576 
	C279.422546,643.304565 278.177216,639.074951 278.116852,634.828491 
	C277.844696,615.687378 277.893616,596.541565 277.855621,577.397400 
	C277.824799,561.876343 271.697998,552.522766 258.194580,550.458191 
	C249.295731,549.097717 239.874100,548.964050 230.977646,550.267517 
	C215.663193,552.511475 207.126556,565.519897 209.533539,580.842285 
	C216.617996,580.842285 223.724426,580.842285 230.900833,580.842285 
	C231.127472,579.049805 231.254776,577.408081 231.552338,575.797791 
	C232.928833,568.348999 237.535507,565.059753 245.116119,566.055908 
	C251.211609,566.856934 254.494019,571.710754 253.965256,578.865723 
	C253.536942,584.661255 249.816284,587.193481 244.052505,588.845642 
M546.071106,625.656921 
	C547.391541,622.981628 548.712036,620.306335 550.343384,617.001160 
	C554.810242,626.816711 558.809570,635.757874 562.987305,644.614868 
	C563.592163,645.897278 565.022827,647.662231 566.122253,647.699402 
	C573.986633,647.965393 581.864258,647.841492 590.306274,647.841492 
	C589.377136,645.904724 588.852966,644.715637 588.249268,643.568359 
	C580.976624,629.746765 573.757568,615.896240 566.356140,602.143860 
	C564.866333,599.375793 564.713318,597.244690 566.318665,594.369141 
	C573.281616,581.896912 579.963806,569.267639 586.705139,556.672363 
	C587.589661,555.019714 588.226196,553.234314 589.127319,551.166992 
	C581.500488,551.166992 574.507568,551.303223 567.524292,551.103943 
	C564.475525,551.016907 562.877625,551.897034 561.628540,554.873108 
	C558.202332,563.036438 554.317871,571.007507 550.225525,579.900696 
	C546.021362,570.794312 542.294678,562.498291 538.314819,554.325623 
	C537.665161,552.991699 535.930054,551.349182 534.642334,551.300903 
	C527.041809,551.016174 519.425232,551.160645 511.081665,551.160645 
	C512.054504,553.172058 512.702576,554.639343 513.456238,556.050354 
	C520.421204,569.090088 527.496338,582.072693 534.265747,595.212952 
	C535.109192,596.850220 535.078796,599.673523 534.236389,601.327454 
	C527.075012,615.387817 519.627197,629.302307 512.279846,643.268127 
	C511.561920,644.632812 510.942169,646.049255 510.087921,647.837036 
	C518.191101,647.837036 525.523987,648.032104 532.831238,647.686584 
	C534.457642,647.609558 536.669617,645.978821 537.452332,644.464233 
	C540.500366,638.565979 543.082031,632.426697 546.071106,625.656921 
M177.175476,614.500061 
	C177.175629,606.341248 177.137161,598.182190 177.185684,590.023682 
	C177.246994,579.717163 183.573700,573.221375 193.898819,572.855225 
	C196.832535,572.751221 199.773071,572.839233 202.742264,572.839233 
	C202.742264,564.763184 202.742264,557.027649 202.742264,549.350891 
	C190.369095,547.034546 182.784195,553.531555 176.034714,563.958496 
	C176.034714,558.952087 176.034714,555.247070 176.034714,551.555725 
	C167.833344,551.555725 160.135971,551.555725 152.537048,551.555725 
	C152.537048,583.827454 152.537048,615.692078 152.537048,647.591248 
	C160.861801,647.591248 168.788055,647.591248 177.175491,647.591248 
	C177.175491,636.731079 177.175491,626.115601 177.175476,614.500061 
M317.194427,612.500610 
	C317.194427,592.187073 317.194427,571.873535 317.194427,551.372070 
	C308.875580,551.372070 300.954620,551.372070 292.885040,551.372070 
	C292.885040,583.622070 292.885040,615.632996 292.885040,647.624023 
	C301.119171,647.624023 308.907837,647.624023 317.194305,647.624023 
	C317.194305,636.084534 317.194305,624.792603 317.194427,612.500610 
M292.461884,537.954773 
	C293.064728,538.588257 293.658478,539.762695 294.271759,539.773010 
	C301.809814,539.899292 309.350708,539.855164 316.791595,539.855164 
	C316.791595,532.340698 316.791595,525.487732 316.791595,518.820801 
	C308.499084,518.820801 300.622040,518.820801 292.438873,518.820801 
	C292.438873,525.141602 292.438873,531.092773 292.461884,537.954773 
M621.013489,530.336060 
	C620.440613,526.567627 617.925049,526.932312 615.274292,527.290283 
	C615.274292,535.538025 615.274292,543.443970 615.274292,551.349976 
	C615.843689,551.461060 616.413147,551.572205 616.982544,551.683350 
	C620.600403,547.293213 617.144287,541.161804 619.367554,535.481689 
	C620.752258,539.490234 621.662781,542.801636 623.049500,545.899902 
	C623.954773,547.922668 625.551147,549.636108 626.838013,551.488037 
	C627.969421,549.707947 629.369507,548.040649 630.173889,546.123352 
	C631.652771,542.598022 632.781067,538.925659 634.055420,535.314575 
	C634.393982,535.399170 634.732544,535.483704 635.071106,535.568237 
	C635.071106,540.809265 635.071106,546.050293 635.071106,551.360840 
	C638.447205,550.637695 639.488037,539.870544 637.740234,527.457764 
	C633.464844,527.186157 633.458435,527.183960 632.175720,530.885681 
	C630.445007,535.880371 628.725403,540.878845 626.669434,546.836853 
	C624.580566,540.810974 622.898682,535.959045 621.013489,530.336060 
M611.584290,527.233093 
	C606.111694,527.192139 600.637817,527.082092 595.168030,527.187439 
	C594.380859,527.202576 593.613708,528.255615 592.837280,528.828308 
	C593.606384,529.432129 594.314148,530.425720 595.157349,530.558167 
	C596.886047,530.829895 598.687439,530.639709 600.774658,530.639709 
	C600.774658,536.720886 600.669434,542.164490 600.849121,547.598755 
	C600.893738,548.950500 601.859802,550.271851 602.402344,551.607178 
	C603.005493,550.327637 604.084229,549.064636 604.129456,547.765686 
	C604.322937,542.201050 604.211914,536.625916 604.211914,530.580078 
	C606.660583,530.580078 608.529236,530.880127 610.213623,530.453247 
	C611.052856,530.240601 611.554810,528.696838 611.584290,527.233093 
z"/>
<path fill="#95969A" opacity="1.000000" stroke="none" 
	d="
M390.706390,64.248276 
	C419.967133,79.569153 443.058105,100.655357 458.000031,130.087631 
	C466.044769,145.934082 469.655151,162.886307 471.065094,180.450012 
	C471.649933,187.735794 472.215576,195.050980 473.389679,202.255051 
	C475.173615,213.200455 481.917633,221.742188 488.691650,229.898911 
	C497.717773,240.767319 507.297180,251.205292 517.063110,261.422729 
	C528.833557,273.737396 527.739075,290.218628 514.116455,300.361206 
	C510.124908,303.333069 506.487305,306.777039 502.534088,309.804321 
	C490.793274,318.795258 486.570404,331.398895 484.906616,345.398956 
	C483.496063,357.268005 482.241791,369.187653 480.064178,380.926483 
	C476.119812,402.189240 463.527130,417.186646 444.644104,427.176941 
	C427.986633,435.989777 409.965942,440.577332 391.602478,443.966156 
	C386.769684,444.858032 381.619995,445.951660 376.914551,445.165192 
	C369.836548,443.982208 364.854187,436.657867 365.298218,430.277527 
	C365.864624,422.139099 371.246338,416.895172 379.270782,414.996552 
	C393.624207,411.600494 407.999939,408.117157 422.053284,403.678955 
	C440.946869,397.712189 450.390625,384.056824 452.118683,364.390717 
	C453.207764,351.996399 454.734253,339.575592 457.134369,327.377167 
	C460.430939,310.622589 469.352814,296.965057 482.700256,286.233978 
	C485.284485,284.156311 487.677826,281.841248 490.635132,279.212708 
	C489.072388,277.309357 487.671783,275.567413 486.233276,273.857422 
	C476.923828,262.791351 467.381439,251.912155 458.346375,240.626663 
	C446.329956,225.617172 441.766479,207.976471 440.954559,189.048416 
	C440.168518,170.725052 436.588898,153.126953 426.857605,137.135422 
	C412.059448,112.817528 390.545990,96.634674 364.618469,86.174431 
	C320.630432,68.427788 276.011383,68.898003 231.276367,83.256409 
	C206.195358,91.306564 182.926315,102.984627 162.435028,119.764175 
	C133.234528,143.675369 115.309799,174.288864 107.783081,211.226151 
	C103.659294,231.463593 103.517578,251.489136 108.985008,271.486023 
	C113.093552,286.512756 121.634880,299.115997 129.821472,312.131165 
	C145.489700,337.040710 160.388351,362.454956 174.930054,388.044067 
	C182.562943,401.475739 188.853516,415.677826 195.579926,429.614227 
	C199.747345,438.248657 196.670654,447.819977 188.871582,451.435730 
	C180.545746,455.295715 171.909714,451.515778 167.639175,442.342072 
	C147.792969,399.709686 125.349358,358.571625 98.216576,320.046967 
	C84.734421,300.904236 76.565994,279.331665 75.088890,255.999374 
	C70.121216,177.530212 103.409485,118.735710 169.227783,77.590858 
	C194.003418,62.102917 221.240295,52.197014 249.912567,46.647083 
	C298.570465,37.228661 345.578491,41.957966 390.706390,64.248276 
z"/>
<path fill="#59B6DC" opacity="1.000000" stroke="none" 
	d="
M390.965698,253.994385 
	C379.527466,262.772583 366.791748,268.751282 357.298065,269.708923 
	C356.677551,265.355225 356.391052,260.898590 355.376343,256.614441 
	C347.636871,223.939026 318.710968,206.296143 284.464233,213.397263 
	C273.245575,215.723495 262.208313,219.031845 250.924988,220.912827 
	C235.233032,223.528748 236.548889,222.850128 230.007538,210.403809 
	C211.953079,176.051346 220.008469,133.218506 249.167831,107.492981 
	C258.810059,98.986229 270.072418,94.111923 283.558899,93.698753 
	C311.363922,92.846924 337.886200,97.225105 362.526825,110.436783 
	C388.624115,124.429504 407.380249,144.803986 414.100372,174.310577 
	C421.040314,204.782211 415.551392,232.096542 390.965698,253.994385 
z"/>
<path fill="#88C6E5" opacity="1.000000" stroke="none" 
	d="
M247.564850,234.832184 
	C263.117737,231.654739 278.103424,227.763550 293.333160,225.557129 
	C324.440338,221.050400 346.942017,246.283783 342.769928,275.667084 
	C342.457153,277.869965 340.682678,280.092438 339.086212,281.850281 
	C325.121552,297.226624 307.045349,304.518799 287.073395,308.048126 
	C265.299286,311.895905 243.413010,312.023224 221.459961,310.176392 
	C203.947113,308.703094 186.703857,305.633301 171.121201,297.247589 
	C164.091003,293.464355 157.523514,288.139954 152.091827,282.269623 
	C147.190521,276.972504 147.282181,269.280853 148.456299,262.333160 
	C151.616257,243.634415 168.999023,228.351227 188.316406,226.998016 
	C197.334549,226.366287 206.064056,227.063385 214.732574,230.567520 
	C225.001984,234.718765 236.011261,235.709900 247.564850,234.832184 
z"/>
<path fill="#252022" opacity="1.000000" stroke="none" 
	d="
M130.393219,573.378357 
	C126.930573,575.925659 123.716835,578.211182 120.540688,580.469971 
	C123.246849,581.655701 126.450836,582.688477 129.265717,584.371887 
	C134.770966,587.664185 138.552048,592.609314 139.968262,598.835571 
	C144.980698,620.872437 138.744202,645.456238 106.966408,647.559570 
	C90.910774,648.622253 74.726746,647.745178 58.291908,647.745178 
	C58.291908,605.198364 58.291908,562.953796 58.291908,520.221558 
	C59.533928,520.149963 60.952423,519.998718 62.371094,519.997131 
	C75.866638,519.981812 89.363167,519.903442 102.857185,520.049438 
	C106.828392,520.092407 110.866058,520.439270 114.747063,521.250549 
	C131.064545,524.661621 139.187851,537.375244 137.421204,556.297119 
	C136.833878,562.587769 134.830994,568.287598 130.393219,573.378357 
M84.000992,621.464905 
	C84.000992,623.743225 84.000992,626.021606 84.000992,628.565369 
	C94.463722,627.926514 105.862808,631.177734 112.039551,620.258301 
	C116.205605,612.893311 116.132843,604.218506 110.968437,597.041077 
	C104.110313,587.509644 93.625435,591.368835 84.000961,590.438416 
	C84.000961,600.884521 84.000961,610.676331 84.000992,621.464905 
M83.997002,560.485107 
	C83.997002,564.265320 83.997002,568.045532 83.997002,572.257690 
	C93.360123,571.659729 103.084869,574.275635 109.424767,565.178894 
	C112.830391,560.292297 112.492912,549.093689 108.733688,544.762146 
	C101.996445,536.999146 92.805908,539.469482 83.997002,538.968262 
	C83.997002,546.240662 83.997002,552.865662 83.997002,560.485107 
z"/>
<path fill="#262122" opacity="1.000000" stroke="none" 
	d="
M419.166290,558.000000 
	C419.166290,545.202026 419.166290,532.903992 419.166290,519.992981 
	C423.121307,519.992981 426.723083,519.992981 430.324829,519.992981 
	C442.321045,519.992981 454.318848,520.117493 466.313202,519.967896 
	C493.773224,519.625549 503.359619,536.358521 500.576538,559.890991 
	C499.022827,573.028687 494.704163,578.128784 480.959412,584.782593 
	C493.509918,586.731750 498.584137,594.721008 499.251190,606.346497 
	C499.727783,614.653198 500.240784,622.957886 500.675446,631.266785 
	C500.977692,637.044128 500.898895,642.911011 507.057983,647.852600 
	C496.857941,647.852600 488.112823,648.013550 479.387756,647.667969 
	C478.167633,647.619690 476.202332,645.185486 476.021454,643.682495 
	C475.130035,636.274963 474.694946,628.811096 474.155548,621.363037 
	C473.747833,615.733704 473.911987,610.012939 472.943237,604.486877 
	C471.708710,597.444458 467.560669,594.255737 460.432953,593.969849 
	C455.494568,593.771790 450.541840,593.931763 445.223816,593.931763 
	C445.223816,611.964172 445.223816,629.570435 445.223816,647.517456 
	C436.459167,647.517456 428.074219,647.517456 419.166290,647.517456 
	C419.166290,617.708374 419.166290,588.104187 419.166290,558.000000 
M471.851074,569.192078 
	C476.143097,561.122681 477.085876,552.535034 471.602997,545.154541 
	C464.910065,536.145081 454.560425,539.626465 445.450867,538.997803 
	C445.450867,551.611084 445.450867,563.501770 445.450867,575.788391 
	C454.766815,575.586182 464.121796,577.412354 471.851074,569.192078 
z"/>
<path fill="#B9DBEE" opacity="1.000000" stroke="none" 
	d="
M185.784760,127.769455 
	C198.458633,120.844696 210.810837,114.071114 223.262512,107.485649 
	C225.639053,106.228745 228.408264,105.714294 232.369720,104.402512 
	C205.016510,139.700928 200.023026,176.742050 217.807495,216.788986 
	C181.069611,207.107986 153.840744,218.321854 136.293884,251.356232 
	C124.080269,204.541840 141.347061,158.979340 185.784760,127.769455 
z"/>
<path fill="#262022" opacity="1.000000" stroke="none" 
	d="
M356.856171,560.581909 
	C365.004303,548.176514 380.163879,547.279724 390.083160,550.234558 
	C397.801025,552.533813 402.240692,558.051819 403.911621,565.812195 
	C404.435059,568.243164 404.873932,570.751221 404.881012,573.225342 
	C404.951752,597.862366 404.923889,622.499695 404.923889,647.500488 
	C396.779297,647.500488 388.720947,647.500488 379.990448,647.500488 
	C379.990448,645.736938 379.990356,643.981445 379.990448,642.225891 
	C379.991516,621.909973 380.006134,601.593994 379.987610,581.278076 
	C379.979065,571.910400 376.927460,568.052246 369.600098,568.009583 
	C361.852234,567.964478 356.986542,572.866211 356.918396,581.511963 
	C356.759674,601.659424 356.857605,621.808777 356.851746,641.957397 
	C356.851227,643.740845 356.851685,645.524292 356.851685,647.571411 
	C348.398529,647.571411 340.481750,647.571411 332.186218,647.571411 
	C332.186218,615.656860 332.186218,583.777954 332.186218,551.520325 
	C339.626129,551.520325 347.203674,551.520325 354.876617,551.520325 
	C355.436737,554.558411 356.022491,557.735535 356.856171,560.581909 
z"/>
<path fill="#262123" opacity="1.000000" stroke="none" 
	d="
M244.424255,588.708984 
	C249.816284,587.193481 253.536942,584.661255 253.965256,578.865723 
	C254.494019,571.710754 251.211609,566.856934 245.116119,566.055908 
	C237.535507,565.059753 232.928833,568.348999 231.552338,575.797791 
	C231.254776,577.408081 231.127472,579.049805 230.900833,580.842285 
	C223.724426,580.842285 216.617996,580.842285 209.533539,580.842285 
	C207.126556,565.519897 215.663193,552.511475 230.977646,550.267517 
	C239.874100,548.964050 249.295731,549.097717 258.194580,550.458191 
	C271.697998,552.522766 277.824799,561.876343 277.855621,577.397400 
	C277.893616,596.541565 277.844696,615.687378 278.116852,634.828491 
	C278.177216,639.074951 279.422546,643.304565 280.171600,647.840576 
	C273.282654,647.840576 266.308472,647.967834 259.347748,647.719299 
	C258.143066,647.676331 256.562866,646.275513 255.920883,645.088379 
	C254.919189,643.235962 254.571442,641.029968 253.684540,638.111267 
	C247.975311,648.608582 238.570816,649.940308 228.616547,649.834229 
	C217.991531,649.721008 210.801804,644.737427 207.832932,634.522278 
	C202.905411,617.567993 205.714722,599.286255 226.295914,593.738525 
	C232.223709,592.140686 238.134125,590.478394 244.424255,588.708984 
M254.003540,606.763733 
	C254.003540,604.742126 254.003540,602.720520 254.003540,600.902954 
	C249.466125,602.412781 245.540359,603.620972 241.690964,605.036865 
	C239.382477,605.885986 236.986481,606.760864 234.989624,608.143677 
	C229.239471,612.125610 227.857971,623.735046 232.200256,629.859680 
	C235.352539,634.306030 243.389832,634.762085 248.557465,629.759521 
	C251.260468,627.143005 252.878693,622.894775 253.799469,619.095764 
	C254.673111,615.491272 253.997726,611.511353 254.003540,606.763733 
z"/>
<path fill="#272224" opacity="1.000000" stroke="none" 
	d="
M545.954163,626.016968 
	C543.082031,632.426697 540.500366,638.565979 537.452332,644.464233 
	C536.669617,645.978821 534.457642,647.609558 532.831238,647.686584 
	C525.523987,648.032104 518.191101,647.837036 510.087921,647.837036 
	C510.942169,646.049255 511.561920,644.632812 512.279846,643.268127 
	C519.627197,629.302307 527.075012,615.387817 534.236389,601.327454 
	C535.078796,599.673523 535.109192,596.850220 534.265747,595.212952 
	C527.496338,582.072693 520.421204,569.090088 513.456238,556.050354 
	C512.702576,554.639343 512.054504,553.172058 511.081665,551.160645 
	C519.425232,551.160645 527.041809,551.016174 534.642334,551.300903 
	C535.930054,551.349182 537.665161,552.991699 538.314819,554.325623 
	C542.294678,562.498291 546.021362,570.794312 550.225525,579.900696 
	C554.317871,571.007507 558.202332,563.036438 561.628540,554.873108 
	C562.877625,551.897034 564.475525,551.016907 567.524292,551.103943 
	C574.507568,551.303223 581.500488,551.166992 589.127319,551.166992 
	C588.226196,553.234314 587.589661,555.019714 586.705139,556.672363 
	C579.963806,569.267639 573.281616,581.896912 566.318665,594.369141 
	C564.713318,597.244690 564.866333,599.375793 566.356140,602.143860 
	C573.757568,615.896240 580.976624,629.746765 588.249268,643.568359 
	C588.852966,644.715637 589.377136,645.904724 590.306274,647.841492 
	C581.864258,647.841492 573.986633,647.965393 566.122253,647.699402 
	C565.022827,647.662231 563.592163,645.897278 562.987305,644.614868 
	C558.809570,635.757874 554.810242,626.816711 550.343384,617.001160 
	C548.712036,620.306335 547.391541,622.981628 545.954163,626.016968 
z"/>
<path fill="#272123" opacity="1.000000" stroke="none" 
	d="
M177.175476,615.000122 
	C177.175491,626.115601 177.175491,636.731079 177.175491,647.591248 
	C168.788055,647.591248 160.861801,647.591248 152.537048,647.591248 
	C152.537048,615.692078 152.537048,583.827454 152.537048,551.555725 
	C160.135971,551.555725 167.833344,551.555725 176.034714,551.555725 
	C176.034714,555.247070 176.034714,558.952087 176.034714,563.958496 
	C182.784195,553.531555 190.369095,547.034546 202.742264,549.350891 
	C202.742264,557.027649 202.742264,564.763184 202.742264,572.839233 
	C199.773071,572.839233 196.832535,572.751221 193.898819,572.855225 
	C183.573700,573.221375 177.246994,579.717163 177.185684,590.023682 
	C177.137161,598.182190 177.175629,606.341248 177.175476,615.000122 
z"/>
<path fill="#292425" opacity="1.000000" stroke="none" 
	d="
M317.194366,613.000610 
	C317.194305,624.792603 317.194305,636.084534 317.194305,647.624023 
	C308.907837,647.624023 301.119171,647.624023 292.885040,647.624023 
	C292.885040,615.632996 292.885040,583.622070 292.885040,551.372070 
	C300.954620,551.372070 308.875580,551.372070 317.194427,551.372070 
	C317.194427,571.873535 317.194427,592.187073 317.194366,613.000610 
z"/>
<path fill="#2B2628" opacity="1.000000" stroke="none" 
	d="
M292.450378,537.499390 
	C292.438873,531.092773 292.438873,525.141602 292.438873,518.820801 
	C300.622040,518.820801 308.499084,518.820801 316.791595,518.820801 
	C316.791595,525.487732 316.791595,532.340698 316.791595,539.855164 
	C309.350708,539.855164 301.809814,539.899292 294.271759,539.773010 
	C293.658478,539.762695 293.064728,538.588257 292.450378,537.499390 
z"/>
<path fill="#2D2B2C" opacity="1.000000" stroke="none" 
	d="
M621.115112,530.721619 
	C622.898682,535.959045 624.580566,540.810974 626.669434,546.836853 
	C628.725403,540.878845 630.445007,535.880371 632.175720,530.885681 
	C633.458435,527.183960 633.464844,527.186157 637.740234,527.457764 
	C639.488037,539.870544 638.447205,550.637695 635.071106,551.360840 
	C635.071106,546.050293 635.071106,540.809265 635.071106,535.568237 
	C634.732544,535.483704 634.393982,535.399170 634.055420,535.314575 
	C632.781067,538.925659 631.652771,542.598022 630.173889,546.123352 
	C629.369507,548.040649 627.969421,549.707947 626.838013,551.488037 
	C625.551147,549.636108 623.954773,547.922668 623.049500,545.899902 
	C621.662781,542.801636 620.752258,539.490234 619.367554,535.481689 
	C617.144287,541.161804 620.600403,547.293213 616.982544,551.683350 
	C616.413147,551.572205 615.843689,551.461060 615.274292,551.349976 
	C615.274292,543.443970 615.274292,535.538025 615.274292,527.290283 
	C617.925049,526.932312 620.440613,526.567627 621.115112,530.721619 
z"/>
<path fill="#363435" opacity="1.000000" stroke="none" 
	d="
M611.896851,527.494141 
	C611.554810,528.696838 611.052856,530.240601 610.213623,530.453247 
	C608.529236,530.880127 606.660583,530.580078 604.211914,530.580078 
	C604.211914,536.625916 604.322937,542.201050 604.129456,547.765686 
	C604.084229,549.064636 603.005493,550.327637 602.402344,551.607178 
	C601.859802,550.271851 600.893738,548.950500 600.849121,547.598755 
	C600.669434,542.164490 600.774658,536.720886 600.774658,530.639709 
	C598.687439,530.639709 596.886047,530.829895 595.157349,530.558167 
	C594.314148,530.425720 593.606384,529.432129 592.837280,528.828308 
	C593.613708,528.255615 594.380859,527.202576 595.168030,527.187439 
	C600.637817,527.082092 606.111694,527.192139 611.896851,527.494141 
z"/>
<path fill="#FDFDFD" opacity="1.000000" stroke="none" 
	d="
M84.000977,620.966553 
	C84.000961,610.676331 84.000961,600.884521 84.000961,590.438416 
	C93.625435,591.368835 104.110313,587.509644 110.968437,597.041077 
	C116.132843,604.218506 116.205605,612.893311 112.039551,620.258301 
	C105.862808,631.177734 94.463722,627.926514 84.000992,628.565369 
	C84.000992,626.021606 84.000992,623.743225 84.000977,620.966553 
z"/>
<path fill="#FCFBFC" opacity="1.000000" stroke="none" 
	d="
M83.997002,559.987854 
	C83.997002,552.865662 83.997002,546.240662 83.997002,538.968262 
	C92.805908,539.469482 101.996445,536.999146 108.733688,544.762146 
	C112.492912,549.093689 112.830391,560.292297 109.424767,565.178894 
	C103.084869,574.275635 93.360123,571.659729 83.997002,572.257690 
	C83.997002,568.045532 83.997002,564.265320 83.997002,559.987854 
z"/>
<path fill="#FAFAFA" opacity="1.000000" stroke="none" 
	d="
M471.639587,569.500977 
	C464.121796,577.412354 454.766815,575.586182 445.450867,575.788391 
	C445.450867,563.501770 445.450867,551.611084 445.450867,538.997803 
	C454.560425,539.626465 464.910065,536.145081 471.602997,545.154541 
	C477.085876,552.535034 476.143097,561.122681 471.639587,569.500977 
z"/>
<path fill="#FBFAFB" opacity="1.000000" stroke="none" 
	d="
M254.003525,607.230103 
	C253.997726,611.511353 254.673111,615.491272 253.799469,619.095764 
	C252.878693,622.894775 251.260468,627.143005 248.557465,629.759521 
	C243.389832,634.762085 235.352539,634.306030 232.200256,629.859680 
	C227.857971,623.735046 229.239471,612.125610 234.989624,608.143677 
	C236.986481,606.760864 239.382477,605.885986 241.690964,605.036865 
	C245.540359,603.620972 249.466125,602.412781 254.003540,600.902954 
	C254.003540,602.720520 254.003540,604.742126 254.003525,607.230103 
z"/>
</svg>