<?xml version="1.0" encoding="UTF-8"?>
<svg version="1.1" xmlns="http://www.w3.org/2000/svg" width="500" height="196">
<path d="M0 0 C3.375 -0.125 3.375 -0.125 7 0 C9.43231143 2.43231143 9.61985358 3.91020734 10.3671875 7.2421875 C10.61339844 8.30953125 10.85960937 9.376875 11.11328125 10.4765625 C11.49033203 12.15878906 11.49033203 12.15878906 11.875 13.875 C13.80176702 22.43840896 16.07207697 30.72072307 19 39 C22.07265296 31.86259589 24.30096197 24.71895183 26.1875 17.1875 C26.44724609 16.17751953 26.70699219 15.16753906 26.97460938 14.12695312 C28.08862825 9.76587148 29.14587489 5.42033289 30 1 C32.8125 0.75 32.8125 0.75 36 1 C38.52655325 3.6980596 39.56095223 6.23636 40.46484375 9.78125 C40.7057373 10.70083496 40.94663086 11.62041992 41.19482422 12.56787109 C41.43990723 13.53547363 41.68499023 14.50307617 41.9375 15.5 C44.02066509 23.44881671 46.22439218 31.26095232 49 39 C54.514086 26.73963001 58.0401152 13.28041342 60 0 C62.33294775 -0.04241723 64.66702567 -0.04092937 67 0 C68 1 68 1 68.08984375 2.80078125 C67.05131558 19.92318157 59.74967341 37.86641947 52 53 C49.75 53.375 49.75 53.375 47 53 C43.62266872 48.68155466 41.70994766 44.19355736 39.875 39.0625 C39.49794922 38.04639648 39.49794922 38.04639648 39.11328125 37.00976562 C35 25.77900033 35 25.77900033 35 20 C34.34 20 33.68 20 33 20 C32.89300781 20.97066406 32.78601563 21.94132812 32.67578125 22.94140625 C32.02825904 27.45138146 30.65083842 31.63463144 29.1875 35.9375 C28.93935547 36.69740234 28.69121094 37.45730469 28.43554688 38.24023438 C26.69791722 43.41775176 24.5366323 48.16334101 22 53 C19.8125 53.5 19.8125 53.5 17 53 C12.98641342 48.17991935 10.61044489 42.21512659 8.5 36.375 C8.20665771 35.57247803 7.91331543 34.76995605 7.61108398 33.94311523 C3.88757533 23.35479956 0 11.29517009 0 0 Z " fill="#929497" transform="translate(159,64)"/>
<path d="M0 0 C0.99 0.33 1.98 0.66 3 1 C4.3515625 3.765625 4.3515625 3.765625 5.625 7.25 C6.05039062 8.38953125 6.47578125 9.5290625 6.9140625 10.703125 C10.68436297 22.14964873 10.01500984 34.71973426 6 46 C6.49886719 45.62488281 6.99773437 45.24976563 7.51171875 44.86328125 C18.06466502 37.34170195 28.02556592 34.04443611 41 35 C39.32837799 47.1889105 30.85340647 56.18831473 21.625 63.8125 C12.91971421 70.21344543 3.49693722 72.94733978 -7 75 C-7 74.34 -7 73.68 -7 73 C-6.17757813 72.5875 -5.35515625 72.175 -4.5078125 71.75 C7.67185423 65.44920243 19.29568506 57.99316181 25 45 C14.92470254 46.21997339 7.72318008 50.36828207 1 58 C-1.05391836 60.62881895 -3.04708088 63.2954419 -5 66 C-6.40030609 61.57994056 -5.07960826 58.30639696 -3.625 54.0625 C-1.09521073 46.48008216 0.18102847 39.95572267 0.1875 31.9375 C0.20586914 30.73383789 0.20586914 30.73383789 0.22460938 29.50585938 C0.28101494 23.96788911 0.28101494 23.96788911 -2 19 C-10.08593546 28.94764568 -14.93706401 38.98137222 -15.625 51.9375 C-15.68300781 52.96327148 -15.68300781 52.96327148 -15.7421875 54.00976562 C-15.83522412 55.67279513 -15.91863787 57.33635847 -16 59 C-21.46763322 52.58147404 -20.59048839 44.00901853 -20 36 C-17.47070836 23.35354182 -11.69491272 13.250118 -2.85546875 3.99609375 C-0.94939789 2.13329806 -0.94939789 2.13329806 0 0 Z " fill="#91AD67" transform="translate(418,38)"/>
<path d="M0 0 C4.65751891 4.23207247 7.48894846 8.59554557 8 15 C8.0763315 23.08023478 7.29008077 30.54277323 1.49609375 36.5625 C-2.89529511 40.14897071 -7.36975927 41.32952914 -13 41 C-18.36967162 39.9243166 -23.29015943 38.13382235 -27 34 C-31.47821758 25.97161651 -32.29599984 18.16635561 -30 9.3125 C-28.11018231 4.22174709 -24.50771188 0.90708482 -20 -2 C-13.44625785 -4.25900531 -5.69395278 -4.01164855 0 0 Z M-21 9 C-23.29690264 13.92193422 -24.06273875 18.88646268 -22.27734375 24.1171875 C-20.32990045 28.42206216 -18.58902143 31.25180136 -14 33 C-9.90275347 33.69740367 -8.34832748 33.20765676 -4.75 31.0625 C-1.12553669 27.67648822 -0.25167108 23.84466836 0 19 C-0.24760976 14.23351208 -1.12202679 10.3351926 -4.625 6.9375 C-10.63877415 3.48514817 -16.1085823 3.53312139 -21 9 Z " fill="#929497" transform="translate(255,77)"/>
<path d="M0 0 C4.47972929 2.53988321 7.11081445 5.0438949 8.69140625 10.08203125 C9.34685729 14.29683036 9.17694153 17.29512925 6.87890625 21.01953125 C3.71100493 24.00640963 1.20187154 24.20630173 -2.9765625 24.1796875 C-3.86923828 24.17646484 -4.76191406 24.17324219 -5.68164062 24.16992188 C-7.07479492 24.15735352 -7.07479492 24.15735352 -8.49609375 24.14453125 C-9.43646484 24.14001953 -10.37683594 24.13550781 -11.34570312 24.13085938 C-13.66673087 24.11907751 -15.98763019 24.10262683 -18.30859375 24.08203125 C-16.44890784 29.01669889 -16.44890784 29.01669889 -13.18359375 33.01953125 C-7.81676177 35.00292568 -3.10329006 34.86517146 2.12890625 32.58203125 C2.97453125 32.08703125 3.82015625 31.59203125 4.69140625 31.08203125 C5.35140625 31.08203125 6.01140625 31.08203125 6.69140625 31.08203125 C7.06012958 37.59614349 7.06012958 37.59614349 5.4375 39.734375 C1.20546496 43.00071077 -4.68265741 43.33425442 -9.87109375 43.01953125 C-15.41062455 42.17698024 -20.15037605 39.81411031 -23.66015625 35.37109375 C-27.5112215 29.02653301 -28.41360939 21.94897514 -26.77734375 14.7421875 C-24.86597038 8.49906036 -22.46474049 4.11957202 -16.68359375 0.76953125 C-11.20866365 -1.71352255 -5.65068272 -2.24688738 0 0 Z M-16.30859375 10.08203125 C-18.63390319 13.83772407 -18.63390319 13.83772407 -19.30859375 18.08203125 C-17.10053851 18.13647645 -14.89208821 18.17502408 -12.68359375 18.20703125 C-10.83894531 18.24183594 -10.83894531 18.24183594 -8.95703125 18.27734375 C-5.36543334 18.08507405 -2.641982 17.38461681 0.69140625 16.08203125 C0.67014163 12.67588179 0.67014163 12.67588179 -0.30859375 9.08203125 C-6.48046782 4.83029578 -10.62750906 5.48881384 -16.30859375 10.08203125 Z " fill="#59595C" transform="translate(140.30859375,74.91796875)"/>
<path d="M0 0 C2.875 -0.1875 2.875 -0.1875 6 0 C8.25870108 3.38805161 8.29259413 4.77350741 8.4140625 8.76171875 C8.45273437 9.87998047 8.49140625 10.99824219 8.53125 12.15039062 C8.5621875 13.31763672 8.593125 14.48488281 8.625 15.6875 C8.66367187 16.86634766 8.70234375 18.04519531 8.7421875 19.25976562 C8.83654391 22.17301977 8.92213161 25.08626607 9 28 C9.84304688 27.07316406 10.68609375 26.14632812 11.5546875 25.19140625 C12.66130447 23.98163007 13.76808373 22.77200233 14.875 21.5625 C15.43058594 20.95083984 15.98617188 20.33917969 16.55859375 19.70898438 C17.09355469 19.12568359 17.62851562 18.54238281 18.1796875 17.94140625 C18.67194824 17.40201416 19.16420898 16.86262207 19.67138672 16.30688477 C21.58073884 14.42875873 22.6949992 14.01250003 25.3828125 13.90234375 C26.28773438 13.91394531 27.19265625 13.92554687 28.125 13.9375 C29.03507812 13.94652344 29.94515625 13.95554687 30.8828125 13.96484375 C31.93082031 13.98224609 31.93082031 13.98224609 33 14 C30.17901246 17.43093079 27.3393213 20.71460873 24.1171875 23.7734375 C23.61485596 24.25449951 23.11252441 24.73556152 22.5949707 25.23120117 C21.58033256 26.19540645 20.55545189 27.14895632 19.52026367 28.09106445 C16.80891985 30.56114796 16.80891985 30.56114796 15.890625 33.95703125 C17.49738898 36.91596633 19.52022453 39.44356412 21.6875 42 C22.10966797 42.52078125 22.53183594 43.0415625 22.96679688 43.578125 C25.99558503 47.19622488 29.01963145 49.57564668 33 52 C32.34 53.32 31.68 54.64 31 56 C24.77325581 56.61046512 24.77325581 56.61046512 21.625 54.125 C20.73868257 53.09294581 19.86611572 52.0490653 19 51 C17.41855521 49.26910596 15.83506929 47.54007552 14.25 45.8125 C10.13308688 41.26617375 10.13308688 41.26617375 9 39 C8.67 44.61 8.34 50.22 8 56 C1 55 1 55 0 54 C-0.09353163 52.31198015 -0.11744791 50.62004793 -0.11352539 48.92944336 C-0.11344986 47.84839828 -0.11337433 46.76735321 -0.11329651 45.65354919 C-0.10813522 44.4775264 -0.10297394 43.3015036 -0.09765625 42.08984375 C-0.0962413 40.89267227 -0.09482635 39.69550079 -0.09336853 38.46205139 C-0.08774979 34.62050934 -0.07519411 30.77902457 -0.0625 26.9375 C-0.05748741 24.34049563 -0.05292409 21.74349035 -0.04882812 19.14648438 C-0.03777427 12.76430321 -0.02101792 6.3821557 0 0 Z " fill="#929497" transform="translate(290,61)"/>
<path d="M0 0 C2.5 1.6875 2.5 1.6875 4.5 4.6875 C4.625 7.875 4.625 7.875 4.5 10.6875 C-0.25 8.8125 -0.25 8.8125 -2.5 7.6875 C-4.33128771 7.59141392 -6.16619959 7.55767421 -8 7.5625 C-8.9796875 7.55992188 -9.959375 7.55734375 -10.96875 7.5546875 C-13.49431054 7.51809947 -13.49431054 7.51809947 -15.5 8.6875 C-15.5 10.3375 -15.5 11.9875 -15.5 13.6875 C-14.47519531 14.00203125 -13.45039063 14.3165625 -12.39453125 14.640625 C-11.03367287 15.07234559 -9.67300573 15.50466934 -8.3125 15.9375 C-7.63896484 16.14246094 -6.96542969 16.34742187 -6.27148438 16.55859375 C-1.99704842 17.93475362 1.276322 19.42132531 4.5 22.6875 C6.09143545 26.89562259 5.79303466 30.77392135 4.4375 35 C1.69737478 38.80081885 -0.99089251 41.05093014 -5.609375 42.22265625 C-11.02908993 43.03561349 -15.3644737 42.60244201 -20.5 40.6875 C-23.60912264 37.88928962 -24.43419011 36.55948102 -24.75 32.375 C-24.6675 31.488125 -24.585 30.60125 -24.5 29.6875 C-23.6646875 30.120625 -23.6646875 30.120625 -22.8125 30.5625 C-22.049375 30.93375 -21.28625 31.305 -20.5 31.6875 C-19.7575 32.05875 -19.015 32.43 -18.25 32.8125 C-13.61727032 34.28655035 -9.1448672 34.23578907 -4.5 32.6875 C-3.57606836 30.82553054 -3.57606836 30.82553054 -3.5 28.6875 C-6.4304254 24.2918619 -10.7668667 23.95130689 -15.64648438 22.66992188 C-18.74394883 21.79263818 -21.10246817 21.05989148 -23.4765625 18.8359375 C-25.36240203 14.87711406 -25.11033109 10.95981764 -24.5 6.6875 C-22.39790606 2.7355634 -19.76763542 0.77545419 -15.55859375 -0.80859375 C-10.15957993 -2.13017398 -5.18638566 -1.94489462 0 0 Z " fill="#929497" transform="translate(347.5,75.3125)"/>
<path d="M0 0 C14.89491063 0.52262844 28.72363196 8.16009877 38.875 18.8125 C46.88422592 28.60795616 49.73467171 40.5945434 49 53 C48.72295572 55.00857103 48.41770428 57.01590468 48 59 C45.36240719 56.36240719 45.54967009 54.67469626 45.125 51 C43.1990227 37.65047794 37.3689512 28.17727302 27.06640625 19.5078125 C23.88911962 17.18941432 20.58764859 15.60162884 17 14 C19.20977232 24.78749066 29.50561095 30.3215591 38 36 C37.01 36.495 37.01 36.495 36 37 C33.3812047 35.89435301 30.89861062 34.73244708 28.375 33.4375 C27.64804932 33.06689453 26.92109863 32.69628906 26.17211914 32.31445312 C13.10949885 25.52593555 4.60213248 17.31538904 0 3 C0 2.01 0 1.02 0 0 Z " fill="#BDD639" transform="translate(364,83)"/>
<path d="M0 0 C1.82421875 1.328125 1.82421875 1.328125 3 3 C3.1875 6.1875 3.1875 6.1875 3 9 C2.31292969 8.89300781 1.62585938 8.78601563 0.91796875 8.67578125 C0.01691406 8.55589844 -0.88414063 8.43601562 -1.8125 8.3125 C-2.70582031 8.18488281 -3.59914063 8.05726562 -4.51953125 7.92578125 C-7.01250666 7.78124906 -7.01250666 7.78124906 -8.78125 9.1875 C-10.28678634 11.42650276 -10.49340617 13.00900517 -10.6875 15.6875 C-10.8421875 17.8221875 -10.8421875 17.8221875 -11 20 C-7.04 20 -3.08 20 1 20 C1 21.65 1 23.3 1 25 C-2 27 -2 27 -11 27 C-11 36.57 -11 46.14 -11 56 C-18 55 -18 55 -19 54 C-19.10825775 52.6508125 -19.14899431 51.29609631 -19.16113281 49.94262695 C-19.17074036 49.08115555 -19.1803479 48.21968414 -19.19024658 47.33210754 C-19.19449646 46.39364487 -19.19874634 45.45518219 -19.203125 44.48828125 C-19.20882507 43.52730026 -19.21452515 42.56631927 -19.22039795 41.57621765 C-19.22986655 39.53593045 -19.23638928 37.49562782 -19.24023438 35.45532227 C-19.24990527 32.34298636 -19.28089675 29.23132037 -19.3125 26.11914062 C-19.31903328 24.13802476 -19.32428247 22.15690416 -19.328125 20.17578125 C-19.3404718 19.24743973 -19.3528186 18.31909821 -19.36553955 17.36262512 C-19.34345114 10.90609997 -18.26089231 6.68480962 -14 1.625 C-9.54910863 -0.78589949 -4.96339858 -0.85284403 0 0 Z " fill="#59595C" transform="translate(113,61)"/>
<path d="M0 0 C6.875 0.875 6.875 0.875 8 2 C8.13543857 4.43713228 8.21056303 6.84990333 8.24609375 9.2890625 C8.27906253 10.80339054 8.31227361 12.31771331 8.34570312 13.83203125 C8.39290505 16.22147594 8.43726676 18.61090414 8.47680664 21.00048828 C8.51684158 23.30525415 8.56833994 25.60955737 8.62109375 27.9140625 C8.6295079 28.61850494 8.63792206 29.32294739 8.64659119 30.04873657 C8.77940011 35.45102605 9.03367653 41.03367653 13 45 C19.73468684 46.3239128 26.2575691 45.99478489 33 45 C33 47.31 33 49.62 33 52 C29.1414404 54.56216524 25.08628689 54.3316636 20.625 54.3125 C19.8825 54.32861328 19.14 54.34472656 18.375 54.36132812 C12.385773 54.36661896 8.16368314 53.10358083 3.75 48.8125 C-0.09793592 42.62831728 -0.28774079 35.97913339 -0.1953125 28.90625 C-0.1924826 28.07411987 -0.18965271 27.24198975 -0.18673706 26.38464355 C-0.17564286 23.75627569 -0.15055925 21.1282629 -0.125 18.5 C-0.11495626 16.70573413 -0.10583286 14.91146285 -0.09765625 13.1171875 C-0.07573893 8.74465721 -0.0412849 4.37238857 0 0 Z " fill="#59595C" transform="translate(39,63)"/>
<path d="M0 0 C0.87527344 -0.01417969 1.75054687 -0.02835937 2.65234375 -0.04296875 C5.0625 0.1875 5.0625 0.1875 8.0625 2.1875 C8.25 5.8125 8.25 5.8125 8.0625 9.1875 C7.44761719 9.09210938 6.83273437 8.99671875 6.19921875 8.8984375 C5.39097656 8.78757812 4.58273437 8.67671875 3.75 8.5625 C2.94949219 8.44648437 2.14898437 8.33046875 1.32421875 8.2109375 C-1.22473215 7.97216593 -1.22473215 7.97216593 -3.9375 10.1875 C-5.05933708 13.55301123 -5.14550968 16.27810232 -5.25390625 19.82421875 C-5.29580078 21.12294922 -5.33769531 22.42167969 -5.38085938 23.75976562 C-5.42066987 25.13150761 -5.46038216 26.50325244 -5.5 27.875 C-5.54320835 29.25847645 -5.58682339 30.64194027 -5.63085938 32.02539062 C-5.73708028 35.41265719 -5.83912358 38.79999799 -5.9375 42.1875 C-8.2806213 41.93188677 -10.61593403 41.59479228 -12.9375 41.1875 C-15.13806954 36.78636092 -14.16739522 30.83268672 -14.1875 26 C-14.208125 24.77990234 -14.22875 23.55980469 -14.25 22.30273438 C-14.28375498 14.5348688 -14.13429489 8.86865775 -8.875 2.8125 C-5.81220266 0.24370223 -3.93237412 0.02887206 0 0 Z " fill="#929497" transform="translate(278.9375,74.8125)"/>
<path d="M0 0 C2.875 -0.125 2.875 -0.125 6 0 C8.78473903 2.78473903 8.26808516 4.53815009 8.30859375 8.43359375 C8.33373047 9.72201172 8.35886719 11.01042969 8.38476562 12.33789062 C8.41351922 14.38971784 8.43753626 16.44146505 8.45629883 18.4934082 C8.47794986 20.47364527 8.51802527 22.4536539 8.55859375 24.43359375 C8.57204834 25.62009521 8.58550293 26.80659668 8.59936523 28.02905273 C8.75736644 30.97761442 8.75736644 30.97761442 10.35961914 32.86743164 C12.49819612 34.34396961 14.44883878 34.65524848 17 35 C17.04254356 36.99954746 17.04080783 39.00041636 17 41 C15.45016739 42.54983261 13.96331622 42.28132961 11.8125 42.375 C8.27223577 42.34676823 6.26556033 41.92820947 3.5 39.6875 C-0.43343785 35.45905432 -0.13646174 31.74474043 -0.09765625 26.26953125 C-0.0962413 25.51911057 -0.09482635 24.76868988 -0.09336853 23.99552917 C-0.0877756 21.6011454 -0.07522444 19.20685547 -0.0625 16.8125 C-0.05748408 15.18815239 -0.05292134 13.56380332 -0.04882812 11.93945312 C-0.03780848 7.95959931 -0.02054873 3.97981556 0 0 Z " fill="#59595C" transform="translate(74,75)"/>
<path d="M0 0 C2.3125 0.0625 2.3125 0.0625 5 1 C6.8125 4.5625 6.8125 4.5625 8 8 C8.99 5.36 9.98 2.72 11 0 C12.32 0 13.64 0 15 0 C16.09506492 3.28519475 16.09960608 5.73663415 16.0625 9.1875 C16.05347656 10.27417969 16.04445312 11.36085937 16.03515625 12.48046875 C16.02355469 13.31191406 16.01195312 14.14335937 16 15 C15.01 15 14.02 15 13 15 C12.67 12.69 12.34 10.38 12 8 C11.01 10.31 10.02 12.62 9 15 C8.01 15 7.02 15 6 15 C5.01 12.36 4.02 9.72 3 7 C2.67 9.64 2.34 12.28 2 15 C1.01 15 0.02 15 -1 15 C-1.10251672 9.87416389 -1.03590199 5.05002222 0 0 Z " fill="#91AD67" transform="translate(200,127)"/>
<path d="M0 0 C1.4540625 0.0309375 1.4540625 0.0309375 2.9375 0.0625 C3.5625 2.375 3.5625 2.375 3.9375 5.0625 C2.9475 6.5475 2.9475 6.5475 1.9375 8.0625 C2.5975 8.3925 3.2575 8.7225 3.9375 9.0625 C3.9375 8.0725 3.9375 7.0825 3.9375 6.0625 C4.9275 6.3925 5.9175 6.7225 6.9375 7.0625 C6.6075 9.0425 6.2775 11.0225 5.9375 13.0625 C6.5975 13.0625 7.2575 13.0625 7.9375 13.0625 C7.9375 13.7225 7.9375 14.3825 7.9375 15.0625 C6.33429026 15.25801338 4.72987014 15.44361983 3.125 15.625 C2.23167969 15.72941406 1.33835938 15.83382812 0.41796875 15.94140625 C-2.0625 16.0625 -2.0625 16.0625 -5.0625 15.0625 C-6.3989048 9.71688081 -5.63591421 6.21980212 -4.0625 1.0625 C-3.0625 0.0625 -3.0625 0.0625 0 0 Z M-1.0625 2.0625 C-1.0625 3.0525 -1.0625 4.0425 -1.0625 5.0625 C-0.4025 4.4025 0.2575 3.7425 0.9375 3.0625 C0.2775 2.7325 -0.3825 2.4025 -1.0625 2.0625 Z M-2.0625 9.0625 C-2.0625 10.3825 -2.0625 11.7025 -2.0625 13.0625 C-1.0725 12.7325 -0.0825 12.4025 0.9375 12.0625 C-0.0525 11.0725 -1.0425 10.0825 -2.0625 9.0625 Z " fill="#91AD67" transform="translate(183.0625,126.9375)"/>
<path d="M0 0 C3.4375 0.1875 3.4375 0.1875 4.4375 1.1875 C4.58904969 3.3295966 4.65927745 5.47773462 4.6875 7.625 C4.72617188 9.38650391 4.72617188 9.38650391 4.765625 11.18359375 C4.65734375 12.17488281 4.5490625 13.16617188 4.4375 14.1875 C1.20958445 16.3394437 0.15349191 16.38836443 -3.5625 16.1875 C-4.2225 14.8675 -4.8825 13.5475 -5.5625 12.1875 C-3.5825 12.1875 -1.6025 12.1875 0.4375 12.1875 C-1.5425 11.1975 -3.5225 10.2075 -5.5625 9.1875 C-5.6875 5.8125 -5.6875 5.8125 -5.5625 2.1875 C-3.5625 0.1875 -3.5625 0.1875 0 0 Z M-2.5625 3.1875 C-2.2325 4.8375 -1.9025 6.4875 -1.5625 8.1875 C-0.5725 7.8575 0.4175 7.5275 1.4375 7.1875 C1.4375 5.8675 1.4375 4.5475 1.4375 3.1875 C0.1175 3.1875 -1.2025 3.1875 -2.5625 3.1875 Z " fill="#91AD67" transform="translate(163.5625,129.8125)"/>
<path d="M0 0 C0.99 0 1.98 0 3 0 C3 1.98 3 3.96 3 6 C5.31 6 7.62 6 10 6 C10 4.02 10 2.04 10 0 C10.99 0 11.98 0 13 0 C13 4.95 13 9.9 13 15 C12.01 15 11.02 15 10 15 C10 13.02 10 11.04 10 9 C7.69 9 5.38 9 3 9 C3 10.98 3 12.96 3 15 C2.01 14.67 1.02 14.34 0 14 C0 9.38 0 4.76 0 0 Z " fill="#91AD67" transform="translate(282,127)"/>
<path d="M0 0 C0.99 0 1.98 0 3 0 C3 1.32 3 2.64 3 4 C3.94875 3.95875 4.8975 3.9175 5.875 3.875 C9 4 9 4 11 6 C11.1953125 8.3828125 11.1953125 8.3828125 11.125 11.125 C11.10695313 12.03507813 11.08890625 12.94515625 11.0703125 13.8828125 C11.04710937 14.58148438 11.02390625 15.28015625 11 16 C10.01 16 9.02 16 8 16 C8 13.03 8 10.06 8 7 C6.68 7 5.36 7 4 7 C3.67 9.97 3.34 12.94 3 16 C2.01 15.67 1.02 15.34 0 15 C0 10.05 0 5.1 0 0 Z " fill="#91AD67" transform="translate(341,126)"/>
<path d="M0 0 C3.375 -0.125 3.375 -0.125 7 0 C9 2 9 2 9.23046875 3.875 C9.20919922 4.926875 9.20919922 4.926875 9.1875 6 C9.17783203 7.051875 9.17783203 7.051875 9.16796875 8.125 C9 10 9 10 8 12 C5.07286212 12.94934202 3.57168632 13.23176473 0.6875 12.0625 C0.130625 11.711875 -0.42625 11.36125 -1 11 C-1.25 8.6875 -1.25 8.6875 -1 6 C1 4.1875 1 4.1875 3 3 C1.68 3.33 0.36 3.66 -1 4 C-0.67 2.68 -0.34 1.36 0 0 Z M3 7 C3 7.99 3 8.98 3 10 C3.99 9.67 4.98 9.34 6 9 C6 8.34 6 7.68 6 7 C5.01 7 4.02 7 3 7 Z " fill="#91AD67" transform="translate(312,130)"/>
<path d="M0 0 C3.5 0.125 3.5 0.125 4.5 1.125 C4.57205511 2.81108966 4.58386068 4.50000659 4.5625 6.1875 C4.55347656 7.10660156 4.54445313 8.02570313 4.53515625 8.97265625 C4.52355469 9.68292969 4.51195312 10.39320313 4.5 11.125 C1.75 12.3125 1.75 12.3125 -1.5 13.125 C-3.875 11.75 -3.875 11.75 -5.5 10.125 C-4.625 5.25 -4.625 5.25 -3.5 4.125 C-3.83 3.135 -4.16 2.145 -4.5 1.125 C-3.5 0.125 -3.5 0.125 0 0 Z M-1.5 7.125 C-1.83 7.785 -2.16 8.445 -2.5 9.125 C-1.51 9.455 -0.52 9.785 0.5 10.125 C0.83 9.135 1.16 8.145 1.5 7.125 C0.51 7.125 -0.48 7.125 -1.5 7.125 Z " fill="#91AD67" transform="translate(260.5,129.875)"/>
<path d="M0 0 C0.33 1.32 0.66 2.64 1 4 C0.236875 3.79375 -0.52625 3.5875 -1.3125 3.375 C-4.21885944 2.66608797 -4.21885944 2.66608797 -7 5 C-7.25030977 7.58380177 -7.25030977 7.58380177 -7 10 C-3.13236554 11.87543354 -3.13236554 11.87543354 1 11 C0.67 12.32 0.34 13.64 0 15 C-3.32292824 16.04434887 -4.56758901 16.2162055 -7.75 14.625 C-10 13 -10 13 -11 12 C-11.45070423 5.12676056 -11.45070423 5.12676056 -10 1.5 C-6.79687946 -0.9023404 -3.92653359 -0.25747761 0 0 Z " fill="#91AD67" transform="translate(51,127)"/>
<path d="M0 0 C3.5625 -0.25 3.5625 -0.25 7 0 C8 1 8 1 8.0625 4.0625 C8.041875 5.031875 8.02125 6.00125 8 7 C6.02 7.33 4.04 7.66 2 8 C4.94729537 9.15811388 4.94729537 9.15811388 8 9 C8 9.99 8 10.98 8 12 C4.86022274 12.98678714 3.32881171 13.11691083 0.1875 12 C-2 10 -2 10 -2.4375 6.5 C-2 3 -2 3 0 0 Z M3 2 C2.01 3.485 2.01 3.485 1 5 C2.32 5 3.64 5 5 5 C4.67 4.01 4.34 3.02 4 2 C3.67 2 3.34 2 3 2 Z " fill="#91AD67" transform="translate(300,130)"/>
<path d="M0 0 C2.3125 0.75 2.3125 0.75 3.3125 1.75 C3.5 5.1875 3.5 5.1875 3.3125 8.75 C2.6525 9.41 1.9925 10.07 1.3125 10.75 C-2.3125 10.375 -2.3125 10.375 -5.6875 9.75 C-6.0175 7.44 -6.3475 5.13 -6.6875 2.75 C-4.28017516 0.52099552 -3.34709579 -0.31135775 0 0 Z " fill="#59595C" transform="translate(79.6875,59.25)"/>
<path d="M0 0 C1.7325 0.1546875 1.7325 0.1546875 3.5 0.3125 C5.81332486 3.78248729 5.83957563 5.23759248 5.5 9.3125 C3.5 12.3125 3.5 12.3125 1.6875 13.1875 C-0.5 13.3125 -0.5 13.3125 -3.25 12.375 C-5.5 10.3125 -5.5 10.3125 -5.88671875 8.3984375 C-5.9375 6.25 -5.9375 6.25 -5.5 2.3125 C-3.5 0.3125 -3.5 0.3125 0 0 Z M-2.5 3.3125 C-2.5 5.2925 -2.5 7.2725 -2.5 9.3125 C-1.51 9.6425 -0.52 9.9725 0.5 10.3125 C1.16 9.6525 1.82 8.9925 2.5 8.3125 C2.17958603 5.70969432 2.17958603 5.70969432 1.5 3.3125 C0.18 3.3125 -1.14 3.3125 -2.5 3.3125 Z " fill="#91AD67" transform="translate(59.5,129.6875)"/>
<path d="M0 0 C2.9375 0.375 2.9375 0.375 4.9375 2.375 C4.5625 5 4.5625 5 3.9375 7.375 C1.9575 7.705 -0.0225 8.035 -2.0625 8.375 C0.01303648 8.9284764 1.78115964 9.375 3.9375 9.375 C3.9375 10.365 3.9375 11.355 3.9375 12.375 C1.27752109 13.11388303 -0.59714544 13.47841212 -3.3125 12.875 C-5.0625 11.375 -5.0625 11.375 -6 8 C-6.0625 4.375 -6.0625 4.375 -5 1.9375 C-3.0625 0.375 -3.0625 0.375 0 0 Z M-2.0625 3.375 C-2.3925 4.035 -2.7225 4.695 -3.0625 5.375 C-1.4125 5.375 0.2375 5.375 1.9375 5.375 C1.9375 4.715 1.9375 4.055 1.9375 3.375 C0.6175 3.375 -0.7025 3.375 -2.0625 3.375 Z " fill="#91AD67" transform="translate(225.0625,129.625)"/>
<path d="M0 0 C3.4375 0.1875 3.4375 0.1875 4.4375 1.1875 C4.47830783 3.18708364 4.48004356 5.18795254 4.4375 7.1875 C2.1275 7.1875 -0.1825 7.1875 -2.5625 7.1875 C-2.5625 7.8475 -2.5625 8.5075 -2.5625 9.1875 C-0.2525 9.1875 2.0575 9.1875 4.4375 9.1875 C3.4375 12.1875 3.4375 12.1875 1.6875 13.0625 C-0.5625 13.1875 -0.5625 13.1875 -3.3125 12.25 C-5.5625 10.1875 -5.5625 10.1875 -5.94921875 8.2734375 C-6 6.125 -6 6.125 -5.5625 2.1875 C-3.5625 0.1875 -3.5625 0.1875 0 0 Z M-2.5625 3.1875 C-2.5625 3.8475 -2.5625 4.5075 -2.5625 5.1875 C-1.2425 5.1875 0.0775 5.1875 1.4375 5.1875 C1.1075 4.1975 0.7775 3.2075 0.4375 2.1875 C-0.7861068 2.1129644 -0.7861068 2.1129644 -2.5625 3.1875 Z " fill="#91AD67" transform="translate(112.5625,129.8125)"/>
<path d="M0 0 C1.134375 0.020625 2.26875 0.04125 3.4375 0.0625 C3.7675 1.3825 4.0975 2.7025 4.4375 4.0625 C3.1175 4.0625 1.7975 4.0625 0.4375 4.0625 C1.7575 4.7225 3.0775 5.3825 4.4375 6.0625 C4.4375 7.7125 4.4375 9.3625 4.4375 11.0625 C1.625 12.1875 1.625 12.1875 -1.5625 13.0625 C-2.5525 12.4025 -3.5425 11.7425 -4.5625 11.0625 C-4.2325 10.0725 -3.9025 9.0825 -3.5625 8.0625 C-1.5825 8.5575 -1.5825 8.5575 0.4375 9.0625 C-0.201875 8.753125 -0.84125 8.44375 -1.5 8.125 C-3.5625 7.0625 -3.5625 7.0625 -4.5625 6.0625 C-4.6875 3.5625 -4.6875 3.5625 -4.5625 1.0625 C-3.5625 0.0625 -3.5625 0.0625 0 0 Z " fill="#91AD67" transform="translate(99.5625,129.9375)"/>
<path d="M0 0 C0.99 0 1.98 0 3 0 C3.1953125 2.05078125 3.390625 4.1015625 3.5859375 6.15234375 C3.72257812 6.76207031 3.85921875 7.37179688 4 8 C4.66 8.33 5.32 8.66 6 9 C6.33 6.03 6.66 3.06 7 0 C7.99 0 8.98 0 10 0 C10 3.63 10 7.26 10 11 C7.25 12.1875 7.25 12.1875 4 13 C1.8125 11.875 1.8125 11.875 0 10 C-0.390625 7.51953125 -0.390625 7.51953125 -0.25 4.8125 C-0.21390625 3.91144531 -0.1778125 3.01039063 -0.140625 2.08203125 C-0.07101563 1.05142578 -0.07101563 1.05142578 0 0 Z " fill="#91AD67" transform="translate(68,130)"/>
<path d="M0 0 C3.5 -0.375 3.5 -0.375 7 0 C9.13586678 3.20380017 9.23132175 4.01939967 9.125 7.6875 C9.10695312 8.49574219 9.08890625 9.30398437 9.0703125 10.13671875 C9.03550781 11.05904297 9.03550781 11.05904297 9 12 C8.01 12 7.02 12 6 12 C5.67 9.36 5.34 6.72 5 4 C4.01 4 3.02 4 2 4 C1.67 6.64 1.34 9.28 1 12 C0.01 12 -0.98 12 -2 12 C-2.05422947 10.5629191 -2.09289723 9.12524538 -2.125 7.6875 C-2.14820313 6.88699219 -2.17140625 6.08648437 -2.1953125 5.26171875 C-2 3 -2 3 0 0 Z " fill="#91AD67" transform="translate(146,130)"/>
<path d="M0 0 C1.670625 0.061875 1.670625 0.061875 3.375 0.125 C4.63737731 2.64975462 4.47356404 4.43700466 4.4375 7.25 C4.42847656 8.16007813 4.41945312 9.07015625 4.41015625 10.0078125 C4.39855469 10.70648438 4.38695312 11.40515625 4.375 12.125 C3.385 12.125 2.395 12.125 1.375 12.125 C1.375 9.155 1.375 6.185 1.375 3.125 C0.055 3.125 -1.265 3.125 -2.625 3.125 C-2.625 6.095 -2.625 9.065 -2.625 12.125 C-3.615 12.125 -4.605 12.125 -5.625 12.125 C-5.67895478 10.50036158 -5.71777195 8.87521459 -5.75 7.25 C-5.77320313 6.34507812 -5.79640625 5.44015625 -5.8203125 4.5078125 C-5.47714282 0.32114237 -4.01321687 0.13838679 0 0 Z " fill="#91AD67" transform="translate(238.625,129.875)"/>
<path d="M0 0 C3 0.25 3 0.25 5 2.25 C5.1953125 4.6328125 5.1953125 4.6328125 5.125 7.375 C5.10695313 8.28507813 5.08890625 9.19515625 5.0703125 10.1328125 C5.04710938 10.83148438 5.02390625 11.53015625 5 12.25 C4.01 12.25 3.02 12.25 2 12.25 C2 9.28 2 6.31 2 3.25 C0.68 3.25 -0.64 3.25 -2 3.25 C-2 6.22 -2 9.19 -2 12.25 C-2.99 12.25 -3.98 12.25 -5 12.25 C-5.05395478 10.62536158 -5.09277195 9.00021459 -5.125 7.375 C-5.14820312 6.47007812 -5.17140625 5.56515625 -5.1953125 4.6328125 C-4.88519731 0.84940724 -3.66944414 0.30578701 0 0 Z " fill="#91AD67" transform="translate(87,129.75)"/>
<path d="M0 0 C0.66 0 1.32 0 2 0 C2 0.66 2 1.32 2 2 C3.32 2 4.64 2 6 2 C6 2.99 6 3.98 6 5 C4.68 5 3.36 5 2 5 C2.33 6.98 2.66 8.96 3 11 C3.99 11 4.98 11 6 11 C6 11.99 6 12.98 6 14 C3 15 3 15 0 14 C-1.31164842 11.37670316 -1.13262846 9.36301375 -1.125 6.4375 C-1.12757813 5.44621094 -1.13015625 4.45492187 -1.1328125 3.43359375 C-1 1 -1 1 0 0 Z " fill="#91AD67" transform="translate(333,128)"/>
<path d="M0 0 C0.99 0 1.98 0 3 0 C3 0.66 3 1.32 3 2 C3.99 2 4.98 2 6 2 C6 2.99 6 3.98 6 5 C5.01 5 4.02 5 3 5 C3.33 6.98 3.66 8.96 4 11 C4.66 11 5.32 11 6 11 C5.67 12.32 5.34 13.64 5 15 C3.35 14.67 1.7 14.34 0 14 C0 9.38 0 4.76 0 0 Z " fill="#91AD67" transform="translate(247,128)"/>
<path d="M0 0 C0.99 0 1.98 0 3 0 C3.03738281 0.83144531 3.07476562 1.66289063 3.11328125 2.51953125 C3.17902344 3.60621094 3.24476563 4.69289062 3.3125 5.8125 C3.37050781 6.89144531 3.42851562 7.97039062 3.48828125 9.08203125 C4.03068507 12.17497517 4.55289624 13.13022903 7 15 C6 16 6 16 3.4375 16.0625 C2.633125 16.041875 1.82875 16.02125 1 16 C-0.14077657 12.57767028 -0.09815117 9.91326783 -0.0625 6.3125 C-0.05347656 5.13300781 -0.04445313 3.95351562 -0.03515625 2.73828125 C-0.02355469 1.83464844 -0.01195312 0.93101563 0 0 Z " fill="#91AD67" transform="translate(268,126)"/>
<path d="M0 0 C0.99 0 1.98 0 3 0 C3.04898437 0.92683594 3.09796875 1.85367188 3.1484375 2.80859375 C3.22320312 4.00613281 3.29796875 5.20367187 3.375 6.4375 C3.44460938 7.63246094 3.51421875 8.82742187 3.5859375 10.05859375 C3.72257812 11.02925781 3.85921875 11.99992188 4 13 C4.66 13.33 5.32 13.66 6 14 C6 14.66 6 15.32 6 16 C4.33388095 16.042721 2.66617115 16.04063832 1 16 C0 15 0 15 -0.09765625 11.62109375 C-0.09098369 10.22652923 -0.07902532 8.83198257 -0.0625 7.4375 C-0.05798828 6.72658203 -0.05347656 6.01566406 -0.04882812 5.28320312 C-0.03700864 3.52209987 -0.01907263 1.76103964 0 0 Z " fill="#91AD67" transform="translate(324,126)"/>
<path d="M0 0 C0.99 0 1.98 0 3 0 C3.04898438 0.92683594 3.09796875 1.85367188 3.1484375 2.80859375 C3.22320312 4.00613281 3.29796875 5.20367187 3.375 6.4375 C3.44460937 7.63246094 3.51421875 8.82742187 3.5859375 10.05859375 C3.72257813 11.02925781 3.85921875 11.99992188 4 13 C4.66 13.33 5.32 13.66 6 14 C6 14.66 6 15.32 6 16 C4.35 16 2.7 16 1 16 C-0.50156874 12.99686252 -0.09281204 10.20932478 -0.0625 6.875 C-0.05347656 5.59367188 -0.04445313 4.31234375 -0.03515625 2.9921875 C-0.02355469 2.00476563 -0.01195313 1.01734375 0 0 Z " fill="#91AD67" transform="translate(128,126)"/>
<path d="M0 0 C0.99 0 1.98 0 3 0 C3.04898438 0.92683594 3.09796875 1.85367188 3.1484375 2.80859375 C3.22320312 4.00613281 3.29796875 5.20367187 3.375 6.4375 C3.44460937 7.63246094 3.51421875 8.82742187 3.5859375 10.05859375 C3.72257812 11.02925781 3.85921875 11.99992188 4 13 C4.66 13.33 5.32 13.66 6 14 C6 14.66 6 15.32 6 16 C4.35 16 2.7 16 1 16 C-0.50156874 12.99686252 -0.09281204 10.20932478 -0.0625 6.875 C-0.05347656 5.59367188 -0.04445313 4.31234375 -0.03515625 2.9921875 C-0.02355469 2.00476563 -0.01195313 1.01734375 0 0 Z " fill="#91AD67" transform="translate(120,126)"/>
<path d="M0 0 C0.99 0.33 1.98 0.66 3 1 C3.22786458 2.98567708 3.45572917 4.97135417 3.68359375 6.95703125 C3.97170735 9.19396393 3.97170735 9.19396393 5 12 C3.35 12 1.7 12 0 12 C0 8.04 0 4.08 0 0 Z " fill="#91AD67" transform="translate(137,130)"/>
<path d="M0 0 C1.32 0 2.64 0 4 0 C4 0.99 4 1.98 4 3 C2.68 3 1.36 3 0 3 C0 2.01 0 1.02 0 0 Z " fill="#91AD67" transform="translate(136,126)"/>
</svg>
