<svg id="Logo" width="283" height="81.16" version="1.1" viewBox="0 0 283 81.16" xml:space="preserve" xmlns="http://www.w3.org/2000/svg">
<g transform="matrix(.30238 0 0 .30238 -54.187 -54.217)">
	<path fill="#1FFF5A" d="m266.2 359.4h-87v-44.1h79.9c32.7 0 52.5 19.9 52.5 52.5v79.9h-45.5v-88.3zm-86.3-76.4c13.9-59.2 67.8-103.7 131.8-103.7 75 0 136 60.9 136 136 0 63.8-43.9 117.4-102.9 131.8v-46.8c32.7-11 56.5-45.9 56.5-85 0-51.2-39.7-91.4-89.6-91.4-39.1 0-72 24.9-83.6 59.2h-48.2z"/>
	<path id="OMV_00000170974475979474998980000010735288336979943831_" fill="#FFFFFF" d="m527.2 313.1c0-53 39-92.2 91.7-92.2 52.6 0 91.6 39.2 91.6 92.2s-39 92.2-91.6 92.2c-52.8 0.1-91.7-39.2-91.7-92.2zm91.7 56.7c32.1 0 53.5-23 53.5-56.6s-21.4-56.6-53.5-56.6c-32.2 0-53.7 23-53.7 56.6s21.5 56.6 53.7 56.6zm115.2-146.3h54.8l42 127.6 41.8-127.6h54.2v179.3h-35.2v-127.9l-42 127.8h-38.5l-42-127.8v127.8h-35.2v-179.2zm208 0h38.7l48.6 133.3 48.5-133.3h37.2l-66.6 179.3h-39.6z"/>
</g></svg>
